<svg width="495" height="210" viewBox="0 0 495 210" fill="none" xmlns="http://www.w3.org/2000/svg">
<path fill-rule="evenodd" clip-rule="evenodd" d="M164.496 54.6955L27.8289 7.44357L0 21.312V151.519L164.75 209.248V209.38L329.883 151.904V138.494V151.827L494.711 208.455L494.786 120.853L487.489 118.321V117.56L494.786 120.085V77.7857L487.504 58.4492V58.4473L322.805 1.42665L322.754 0.586426L164.496 54.6955Z" fill="#231F20"/>
<path d="M494.786 120.855L494.708 111.686L478.457 112.457L487.12 123.397L494.786 120.855Z" fill="#231F20"/>
<path d="M172.416 83.2556V114.767L297.53 71.468V87.6466L172.493 130.87V198.438L322.293 146.355V31.4041L172.416 83.1786V83.2556ZM297.53 130.1L199.786 163.923V147.049L297.53 113.226V130.1Z" fill="#FFBC33"/>
<path d="M487.12 109.297L361.468 65.7669V82.7162L487.12 126.323V197.667L337.472 146.278V120.622L464.81 164V142.735L337.472 99.359V31.4812L487.12 83.2556V109.297Z" fill="#FFBC33"/>
<path d="M34.4982 71.9304V125.169L157.237 168.083V198.44L7.66553 146.049V32.0977L157.237 83.7951V114.846L34.4982 71.9304Z" fill="#FFBC33"/>
</svg>
