<svg width="500" height="422" viewBox="0 0 500 422" fill="none" xmlns="http://www.w3.org/2000/svg">
<g clip-path="url(#clip0_461_7033)">
<mask id="mask0_461_7033" style="mask-type:luminance" maskUnits="userSpaceOnUse" x="0" y="0" width="500" height="422">
<path d="M500 0V421.053H0V0H500Z" fill="white"/>
</mask>
<g mask="url(#mask0_461_7033)">
<path fill-rule="evenodd" clip-rule="evenodd" d="M247.502 22.5733L238.271 6.54889L261.177 0.0394878L261.175 0.050766C262.083 -0.144723 263.108 0.223698 263.57 1.15603L499.694 411.805C500.461 413.346 499.694 414.887 498.16 414.887H26.6791C25.1471 414.887 23.6133 413.346 25.1471 411.805L247.5 22.5733H247.502Z" fill="#262522"/>
<path d="M235.205 7.31959C235.97 5.77824 238.271 5.77824 239.038 7.31959L475.162 417.97C475.929 419.511 475.162 421.053 473.628 421.053H2.14686C0.613025 421.053 -0.91893 419.511 0.613025 417.97L235.205 7.31959Z" fill="url(#paint0_linear_461_7033)"/>
<path fill-rule="evenodd" clip-rule="evenodd" d="M167.104 227.306L30.4364 180.055L2.60742 193.923V324.13L167.357 381.859V381.991L332.491 324.515V311.105V324.438L497.318 381.066L497.393 293.464L490.096 290.932V290.171L497.393 292.696V250.397L490.111 231.06V231.058L325.412 174.038L325.361 173.197L167.104 227.306Z" fill="#231F20"/>
<path d="M497.393 293.466L497.316 284.297L481.064 285.068L489.728 296.008L497.393 293.466Z" fill="#231F20"/>
<path d="M175.023 255.867V287.378L300.138 244.079V260.258L175.1 303.481V371.049L324.901 318.966V204.015L175.023 255.79V255.867ZM300.138 302.711L202.393 336.534V319.66L300.138 285.837V302.711Z" fill="white"/>
<path d="M489.728 281.908L364.075 238.378V255.327L489.728 298.934V370.278L340.079 318.889V293.233L467.417 336.611V315.346L340.079 271.97V204.092L489.728 255.867V281.908Z" fill="white"/>
<path d="M37.1057 244.541V297.78L159.844 340.694V371.051L10.2729 318.66V204.709L159.844 256.406V287.457L37.1057 244.541Z" fill="white"/>
</g>
</g>
<defs>
<linearGradient id="paint0_linear_461_7033" x1="237.735" y1="141.532" x2="237.735" y2="752.964" gradientUnits="userSpaceOnUse">
<stop offset="0.29" stop-color="#FFBC33"/>
<stop offset="1" stop-color="#0E0800"/>
</linearGradient>
<clipPath id="clip0_461_7033">
<rect width="500" height="421.053" fill="white"/>
</clipPath>
</defs>
</svg>
